<svg width="155" height="11" viewBox="0 0 155 11" fill="none" xmlns="http://www.w3.org/2000/svg">
<path d="M15.416 11V9.776H3.32V1.658H15.416V0.452H0.62V11H15.416ZM37.2766 11V0.452H20.2126V11H22.9126V7.058H34.5766V11H37.2766ZM34.5766 5.852H22.9126V1.658H34.5766V5.852ZM60.4417 11L51.0097 7.13H58.6417V0.452H43.1977V11H45.8977V6.752L55.7077 11H60.4417ZM55.9597 5.978H45.8977V1.658H55.9597V5.978ZM88.1858 11V9.776H77.2958V0.452H74.5958V11H88.1858ZM109.758 11V0.452H92.6942V11H109.758ZM107.058 9.776H95.3942V1.658H107.058V9.776ZM131.771 11V5.096H124.013V6.284H129.179V9.776H118.397V1.658H131.771V0.452H115.697V11H131.771ZM154.762 11V0.452H137.698V11H154.762ZM152.062 9.776H140.398V1.658H152.062V9.776Z" fill="#0F0F0F"/>
</svg>
